<svg width="48" height="46" viewBox="0 0 48 46" fill="none" xmlns="http://www.w3.org/2000/svg">
<rect x="2" y="14" width="33" height="25" rx="5" fill="#82D1FE"/>
<rect y="41" width="38" height="5" rx="2.5" fill="#82D1FE"/>
<circle cx="31" cy="17" r="17" fill="#656BFF"/>
<path d="M39.246 14.9649C39.106 14.6799 38.816 14.4999 38.4985 14.4999H31.9293L32.6593 7.9249C32.701 7.55323 32.4893 7.1999 32.1426 7.0599C31.7951 6.91823 31.3976 7.02823 31.1701 7.32407L22.8368 18.1574C22.6435 18.4091 22.6093 18.7491 22.7501 19.0341C22.891 19.3199 23.181 19.4999 23.4985 19.4999H30.0676L29.3376 26.0749C29.296 26.4466 29.5076 26.7999 29.8543 26.9399C29.9551 26.9807 30.061 26.9999 30.1651 26.9999C30.4185 26.9999 30.6651 26.8841 30.826 26.6749L39.1593 15.8416C39.3526 15.5899 39.386 15.2499 39.246 14.9649Z" fill="white"/>
</svg>
