<svg width="56" height="40" viewBox="0 0 56 40" fill="none" xmlns="http://www.w3.org/2000/svg">
<circle cx="19.5" cy="19.7876" r="19.5" fill="#82D1FE"/>
<g clip-path="url(#clip0_203_704)">
<circle cx="38" cy="19" r="7" fill="white"/>
<path d="M56 23.5625V16.4375H50.7833C50.4473 15.1336 49.9342 13.9034 49.2657 12.7729L52.9541 9.0845L47.9155 4.04594L44.2271 7.73431C43.0966 7.06575 41.8664 6.55394 40.5625 6.21669V1H33.4375V6.21669C32.1336 6.55275 30.9034 7.06575 29.7729 7.73431L26.0845 4.04594L21.0459 9.0845L24.7343 12.7729C24.0658 13.9034 23.5539 15.1336 23.2167 16.4375H18V23.5625H23.2167C23.5528 24.8664 24.0658 26.0966 24.7343 27.2271L21.0459 30.9155L26.0845 35.9541L29.7729 32.2657C30.9046 32.9342 32.1336 33.4473 33.4375 33.7833V39H40.5625V33.7833C41.8664 33.4473 43.0966 32.9342 44.2271 32.2657L47.9155 35.9541L52.9541 30.9155L49.2657 27.2271C49.9342 26.0954 50.4461 24.8664 50.7833 23.5625H56ZM37 25.9375C33.7213 25.9375 31.0625 23.2787 31.0625 20C31.0625 16.7213 33.7213 14.0625 37 14.0625C40.2787 14.0625 42.9375 16.7213 42.9375 20C42.9375 23.2787 40.2787 25.9375 37 25.9375Z" fill="#656BFF"/>
</g>
<defs>
<clipPath id="clip0_203_704">
<rect width="38" height="38" fill="white" transform="translate(18 1)"/>
</clipPath>
</defs>
</svg>
