<svg width="60" height="46" viewBox="0 0 60 46" fill="none" xmlns="http://www.w3.org/2000/svg">
<circle cx="22.5" cy="22.5" r="22.5" fill="#82D1FE"/>
<path d="M36.812 20.4122L54.9576 14.7965L56.7335 33.708L51.7531 30.384C51.7531 30.384 40.8856 43.8101 20.986 45.4261C40.6464 31.6618 42.9438 24.5047 42.9438 24.5047L36.812 20.4122Z" fill="#656BFF"/>
<path d="M24.4018 22.0502C21.824 21.2286 20.1162 20.9063 20.1162 19.0213C20.1162 17.6841 21.2762 16.4113 23.4996 16.4113C26.0612 16.4113 26.8829 17.8291 26.8829 19.5369H29.944C29.944 16.653 28.059 14.5586 25.1107 13.9947V10.6113H21.8885V14.0108C19.3429 14.5263 17.0551 16.218 17.0551 19.0374C17.0551 22.6624 19.9229 23.5486 23.4996 24.7086C26.5285 25.6913 27.1246 26.3841 27.1246 28.0758C27.1246 29.5258 26.0451 30.5891 23.4996 30.5891C21.5662 30.5891 19.8746 29.2358 19.8746 27.2702H16.6523C16.6523 30.2991 18.8757 32.4258 21.8885 33.0058V36.3891H25.1107V33.0541C28.3973 32.5869 30.2662 30.6536 30.2662 28.0597C30.2662 25.0469 28.7518 23.4358 24.4018 22.0502Z" fill="white"/>
</svg>
